<?xml version="1.0" encoding="utf-8"?>
<!-- Generator: Adobe Illustrator 24.1.0, SVG Export Plug-In . SVG Version: 6.00 Build 0)  -->
<svg version="1.1" id="Layer_1" xmlns="http://www.w3.org/2000/svg" xmlns:xlink="http://www.w3.org/1999/xlink" x="0px" y="0px"
	 viewBox="0 0 100 97.1" style="enable-background:new 0 0 100 97.1;" xml:space="preserve">
<style type="text/css">
	.st0{display:none;}
	.st1{display:inline;}
</style>
<g class="st0">
	<rect x="-342.2" y="-705.9" class="st1" width="1286.9" height="1225.4"/>
</g>
<g>
	<path d="M80.7,40.9h-2.8v-5c0-3.3-2.7-6.1-6.1-6.1h-51c-3.3,0-6.1,2.7-6.1,6.1v28.1c0,3.3,2.7,6.1,6.1,6.1h51
		c3.3,0,6.1-2.7,6.1-6.1v-5h2.8c2.5,0,4.5-2,4.5-4.5v-9.2C85.2,42.9,83.2,40.9,80.7,40.9z M82.2,54.6c0,0.8-0.7,1.5-1.5,1.5h-5.8v8
		c0,1.7-1.4,3.1-3.1,3.1h-51c-1.7,0-3.1-1.4-3.1-3.1V35.9c0-1.7,1.4-3.1,3.1-3.1h51c1.7,0,3.1,1.4,3.1,3.1v8h5.8
		c0.8,0,1.5,0.7,1.5,1.5V54.6z"/>
	<path d="M24.5,37.5c-1.3,0-2.3,1-2.3,2.3v20.5c0,1.3,1,2.3,2.3,2.3s2.3-1,2.3-2.3V39.7C26.8,38.5,25.8,37.5,24.5,37.5z"/>
	<path d="M33.3,37.5c-1.3,0-2.3,1-2.3,2.3v20.5c0,1.3,1,2.3,2.3,2.3s2.3-1,2.3-2.3V39.7C35.6,38.5,34.5,37.5,33.3,37.5z"/>
	<path d="M42.1,37.5c-1.3,0-2.3,1-2.3,2.3v20.5c0,1.3,1,2.3,2.3,2.3c1.3,0,2.3-1,2.3-2.3V39.7C44.4,38.5,43.3,37.5,42.1,37.5z"/>
	<path d="M50.9,37.5c-1.3,0-2.3,1-2.3,2.3v20.5c0,1.3,1,2.3,2.3,2.3c1.3,0,2.3-1,2.3-2.3V39.7C53.1,38.5,52.1,37.5,50.9,37.5z"/>
</g>
</svg>
