<?xml version="1.0" encoding="utf-8"?>
<!-- Generator: Adobe Illustrator 24.1.0, SVG Export Plug-In . SVG Version: 6.00 Build 0)  -->
<svg version="1.1" id="Layer_1" xmlns="http://www.w3.org/2000/svg" xmlns:xlink="http://www.w3.org/1999/xlink" x="0px" y="0px"
	 viewBox="0 0 100 125" style="enable-background:new 0 0 100 125;" xml:space="preserve">
<g>
	<path d="M31,90.9h38c7.7,0,14-6.3,14-14V51.7c0-6.9-5-12.6-11.5-13.8V23.1c0-7.7-6.3-14-14-14h-15c-7.7,0-14,6.3-14,14
		c0,1.1,0.9,2,2,2s2-0.9,2-2c0-5.5,4.5-10,10-10h15c5.5,0,10,4.5,10,10v14.6H31c-7.7,0-14,6.3-14,14v25.2C17,84.7,23.3,90.9,31,90.9
		z M21,51.7c0-5.5,4.5-10,10-10h38c5.5,0,10,4.5,10,10v25.2c0,5.5-4.5,10-10,10H31c-5.5,0-10-4.5-10-10V51.7z"/>
	<path d="M50,76.2c1.1,0,2-0.9,2-2v-6c0-1.1-0.9-2-2-2s-2,0.9-2,2v6C48,75.3,48.9,76.2,50,76.2z"/>
</g>
</svg>
