<svg id="Layer_2" data-name="Layer 2" xmlns="http://www.w3.org/2000/svg" viewBox="0 0 77.15 44.49"><path d="M50,39.45a2.1,2.1,0,0,0-2.06-2.06H22.21a2.06,2.06,0,0,0,0,4.12H47.93A2,2,0,0,0,50,39.45Z" transform="translate(-11.84 -27.54)"/><path d="M46.64,49.31a2.08,2.08,0,0,0-2-2.06H31a2.06,2.06,0,0,0,0,4.12H44.59A2,2,0,0,0,46.64,49.31Z" transform="translate(-11.84 -27.54)"/><path d="M66.79,27.54H13.9a2.06,2.06,0,1,0,0,4.11h53a18.09,18.09,0,1,1-16.11,26.4A2,2,0,0,0,49,56.94H38.42a2.06,2.06,0,1,0,0,4.11h9.25A22.21,22.21,0,1,0,66.79,27.54Z" transform="translate(-11.84 -27.54)"/><path d="M66.79,35.25a2.27,2.27,0,0,0-2.23,2.23V50.17h0v.42h0c0,.18.09.26.09.43h0c.08.09.08.26.17.35h0c.08.08.17.25.25.34h0l5.66,5.66a2.34,2.34,0,0,0,1.54.68,2.19,2.19,0,0,0,1.55-.68,2.3,2.3,0,0,0,0-3.18l-5.06-5V37.48A1.88,1.88,0,0,0,66.79,35.25Z" transform="translate(-11.84 -27.54)"/></svg>