<?xml version="1.0" encoding="utf-8"?>
<!-- Generator: Adobe Illustrator 24.1.0, SVG Export Plug-In . SVG Version: 6.00 Build 0)  -->
<svg version="1.1" id="Layer_2" xmlns="http://www.w3.org/2000/svg" xmlns:xlink="http://www.w3.org/1999/xlink" x="0px" y="0px"
	 viewBox="0 0 60 24" style="enable-background:new 0 0 60 24;" xml:space="preserve">
<path d="M22.6,12.7c0,1.4-0.2,2.7-0.7,3.9c-0.5,1.2-1.1,2.2-2,3.1c-0.8,0.9-1.8,1.5-3,2c-1.2,0.5-2.4,0.7-3.8,0.7s-2.6-0.2-3.8-0.7
	c-1.2-0.5-2.2-1.2-3-2c-0.8-0.9-1.5-1.9-2-3.1c-0.5-1.2-0.7-2.5-0.7-3.9s0.2-2.7,0.7-3.9c0.5-1.2,1.1-2.2,2-3.1c0.8-0.9,1.8-1.5,3-2
	c1.2-0.5,2.4-0.7,3.8-0.7c1.4,0,2.6,0.2,3.8,0.7c1.2,0.5,2.1,1.2,3,2s1.5,1.9,2,3.1C22.4,9.9,22.6,11.2,22.6,12.7z M22,12.7
	c0-1.3-0.2-2.5-0.6-3.6c-0.4-1.1-1-2.1-1.8-2.9c-0.8-0.8-1.7-1.5-2.8-2c-1.1-0.5-2.3-0.7-3.6-0.7c-1.3,0-2.5,0.2-3.6,0.7
	c-1.1,0.5-2,1.1-2.8,2S5.3,7.9,4.9,9.1c-0.4,1.1-0.7,2.3-0.7,3.6c0,1.3,0.2,2.5,0.6,3.6c0.4,1.1,1,2.1,1.8,2.9
	c0.8,0.8,1.7,1.5,2.8,2c1.1,0.5,2.3,0.7,3.6,0.7c1.3,0,2.5-0.2,3.6-0.7c1.1-0.5,2-1.1,2.8-2c0.8-0.8,1.4-1.8,1.8-2.9
	C21.8,15.1,22,13.9,22,12.7z"/>
<path d="M38.8,16.9c0,1-0.2,1.8-0.6,2.4c-0.4,0.6-0.8,1.1-1.4,1.5c-0.6,0.4-1.2,0.6-1.9,0.8c-0.7,0.1-1.4,0.2-2,0.2h-5.6V3.5h5
	c0.7,0,1.4,0.1,2.1,0.2C35,3.8,35.6,4,36.1,4.4c0.5,0.3,1,0.8,1.3,1.3c0.3,0.6,0.5,1.3,0.5,2.1c0,0.7-0.1,1.2-0.3,1.7
	c-0.2,0.5-0.5,0.9-0.8,1.2c-0.4,0.3-0.8,0.6-1.2,0.8s-0.9,0.4-1.4,0.5v0.1c0.5,0.1,1,0.2,1.5,0.4c0.5,0.2,1,0.5,1.5,0.9
	c0.5,0.4,0.8,0.9,1.1,1.5C38.6,15.4,38.8,16.1,38.8,16.9z M37.4,7.9c0-0.7-0.1-1.4-0.4-1.9c-0.3-0.5-0.7-0.9-1.2-1.2
	c-0.5-0.3-1-0.5-1.7-0.6C33.4,4,32.8,4,32.1,4h-4.3v7.9h4.4c0.6,0,1.2-0.1,1.9-0.2c0.6-0.2,1.2-0.4,1.7-0.7c0.5-0.3,0.9-0.7,1.2-1.2
	C37.2,9.2,37.4,8.6,37.4,7.9z M38.2,17c0-0.8-0.2-1.5-0.5-2.1c-0.3-0.6-0.8-1.1-1.3-1.4c-0.5-0.4-1.1-0.6-1.7-0.8
	c-0.6-0.2-1.2-0.2-1.8-0.2h-5.1v8.9h4.8c0.8,0,1.5-0.1,2.2-0.2c0.7-0.2,1.3-0.4,1.8-0.8s0.9-0.8,1.2-1.3
	C38.1,18.4,38.2,17.8,38.2,17z"/>
<path d="M54.7,16.9c0,1-0.2,1.8-0.6,2.4c-0.4,0.6-0.8,1.1-1.4,1.5c-0.6,0.4-1.2,0.6-1.9,0.8s-1.4,0.2-2,0.2h-5.6V3.5h5
	c0.7,0,1.4,0.1,2.1,0.2c0.7,0.1,1.3,0.4,1.8,0.7c0.5,0.3,1,0.8,1.3,1.3s0.5,1.3,0.5,2.1c0,0.7-0.1,1.2-0.3,1.7
	c-0.2,0.5-0.5,0.9-0.8,1.2c-0.4,0.3-0.8,0.6-1.2,0.8c-0.5,0.2-0.9,0.4-1.4,0.5v0.1c0.5,0.1,1,0.2,1.5,0.4c0.5,0.2,1,0.5,1.5,0.9
	c0.5,0.4,0.8,0.9,1.1,1.5C54.6,15.4,54.7,16.1,54.7,16.9z M53.3,7.9c0-0.7-0.1-1.4-0.4-1.9c-0.3-0.5-0.7-0.9-1.2-1.2
	c-0.5-0.3-1-0.5-1.7-0.6C49.4,4,48.7,4,48,4h-4.3v7.9h4.4c0.6,0,1.2-0.1,1.9-0.2c0.6-0.2,1.2-0.4,1.7-0.7c0.5-0.3,0.9-0.7,1.2-1.2
	C53.1,9.2,53.3,8.6,53.3,7.9z M54.1,17c0-0.8-0.2-1.5-0.5-2.1c-0.3-0.6-0.8-1.1-1.3-1.4c-0.5-0.4-1.1-0.6-1.7-0.8
	c-0.6-0.2-1.2-0.2-1.8-0.2h-5.1v8.9h4.8c0.8,0,1.5-0.1,2.2-0.2c0.7-0.2,1.3-0.4,1.8-0.8s0.9-0.8,1.2-1.3S54.1,17.8,54.1,17z"/>
</svg>
